<svg width="505.003" height="505.003" xmlns="http://www.w3.org/2000/svg">

 <g>
  <title>background</title>
  <rect fill="none" id="canvas_background" height="402" width="582" y="-1" x="-1"/>
 </g>
 <g>
  <title>Layer 1</title>
  <path id="svg_3" fill="#181e49" d="m392.934,52.377l-279.115,0l3.767,-28.56c1.226,-9.341 9.177,-16.317 18.594,-16.317l234.391,0c9.418,0 17.368,6.976 18.605,16.317l3.758,28.56z"/>
  <path id="svg_4" fill="#363a5d" d="m356.292,51.12203l-242.473,0l3.767,-28.56c1.226,-9.341 9.177,-16.317 18.594,-16.317l197.74,0c9.418,0 17.368,6.976 18.605,16.317l3.767,28.56z"/>
  <path id="svg_5" fill="#181e49" d="m425.359,134.618l-343.965,0l6.034,-68.005c0.712,-8.06 7.458,-14.236 15.55,-14.236l300.808,0c8.082,0 14.827,6.176 15.539,14.236l6.034,68.005z"/>
  <path id="svg_6" fill="#363a5d" d="m388.707,134.618l-307.313,0l6.034,-68.005c0.712,-8.06 7.458,-14.236 15.55,-14.236l264.156,0c8.082,0 14.827,6.176 15.55,14.236l6.023,68.005z"/>
  <path id="svg_7" fill="#181e49" d="m408.886,134.613l-37.92,347.63c-0.95,8.68 -8.28,15.26 -17.01,15.26l-201.15,0c-8.74,0 -16.07,-6.58 -17.02,-15.26l-37.92,-347.63l311.02,0z"/>
  <path id="svg_8" fill="#d3d9dd" d="m372.866,134.613l-37.92,347.63c-0.94,8.68 -8.28,15.26 -17.01,15.26l-165.13,0c-8.74,0 -16.07,-6.58 -17.02,-15.26l-37.92,-347.63l275,0z"/>
  <path id="svg_9" fill="#181e49" d="m401.618,201.341l-20.369,186.558l-3.176,29.151l-249.394,0l-3.176,-29.151l-20.368,-186.558l296.483,0z"/>
  <path id="svg_10" fill="#363a5d" d="m365.589,201.341l-20.357,186.558l-3.176,29.151l-213.377,0l-3.176,-29.151l-20.368,-186.558l260.454,0z"/>
  <path id="svg_11" fill="#883f2e" d="m299.501,330.232l-21.847,23.468c-9.472,10.184 -22.329,15.331 -35.207,15.331c-5.727,0 -11.466,-1.019 -16.908,-3.066c-5.716,-2.135 -11.115,-5.421 -15.857,-9.834c-19.449,-18.091 -20.533,-48.534 -2.431,-67.972l21.847,-23.468c5.245,-5.64 11.542,-9.735 18.299,-12.254c16.536,-6.198 35.875,-3.022 49.673,9.823c19.449,18.102 20.533,48.534 2.431,67.972z"/>
  <path id="svg_12" fill="#a44f3e" d="m265.663,330.232l-21.847,23.468c-5.245,5.64 -11.531,9.735 -18.277,12.265c-5.716,-2.135 -11.115,-5.421 -15.857,-9.834c-19.449,-18.091 -20.533,-48.534 -2.431,-67.972l21.847,-23.468c5.245,-5.64 11.542,-9.735 18.299,-12.254c5.705,2.136 11.093,5.41 15.835,9.823c19.449,18.102 20.533,48.534 2.431,67.972z"/>
  <path id="svg_14" d="m431.955,135.20897l-6.034,-68.001c-1.061,-12.016 -10.953,-21.076 -23.01,-21.076l-4.274,0l-2.899,-22.044c-1.725,-13.018 -12.92,-22.833 -26.041,-22.833l-234.392,0c-13.13,0 -24.32,9.819 -26.03,22.837l-2.907,22.04l-4.266,0c-12.063,0 -21.96,9.061 -23.021,21.073l-6.034,68.004c-0.868,9.787 11.124,8.163 17.218,8.163l37.19,340.941c1.369,12.511 11.891,21.944 24.476,21.944l120.753,0c4.142,0 7.5,-3.357 7.5,-7.5s-3.358,-7.5 -7.5,-7.5l-120.753,0c-4.918,0 -9.03,-3.687 -9.564,-8.573l-6.205,-56.881l232.678,0l-6.204,56.879c-0.535,4.889 -4.642,8.575 -9.554,8.575l-41.558,0c-4.142,0 -7.5,3.357 -7.5,7.5s3.358,7.5 7.5,7.5l41.558,0c12.579,0 23.097,-9.434 24.465,-21.946l37.191,-340.939c6.093,0 18.085,1.624 17.217,-8.163zm-61.48,275.595l-235.945,0l-21.896,-200.703l279.736,0l-21.895,200.703zm23.531,-215.703l-283.009,0l-5.643,-51.729l294.294,0l-5.642,51.729zm-305.292,-66.729l5.31,-59.844c0.373,-4.217 3.846,-7.396 8.08,-7.396l58.178,0c4.142,0 7.5,-3.357 7.5,-7.5s-3.358,-7.5 -7.5,-7.5l-38.783,0l2.649,-20.083c0.733,-5.584 5.53,-9.794 11.158,-9.794l234.392,0c5.628,0 10.43,4.214 11.169,9.795l2.641,20.082l-183.178,0c-4.142,0 -7.5,3.357 -7.5,7.5s3.358,7.5 7.5,7.5l202.581,0c4.227,0 7.696,3.18 8.068,7.399l5.31,59.841l-327.575,0z"/>
  <path id="svg_15" d="m301.308,256.771c-10.87,-10.119 -25.027,-15.411 -39.869,-14.868c-14.84,0.53 -28.586,6.809 -38.705,17.678l-21.848,23.469c-10.119,10.869 -15.399,25.028 -14.869,39.869c0.531,14.836 6.806,28.577 17.669,38.695c0.003,0.003 0.006,0.006 0.009,0.009s0.007,0.006 0.01,0.009c10.691,9.949 24.287,14.87 37.854,14.87c14.906,0 29.776,-5.943 40.71,-17.688l21.848,-23.469c20.889,-22.437 19.629,-57.686 -2.809,-78.574zm-8.169,68.354l-21.848,23.469c-13.507,14.507 -35.229,16.879 -51.404,6.644l33.44,-35.919c2.823,-3.031 2.653,-7.777 -0.379,-10.6c-3.031,-2.822 -7.777,-2.652 -10.6,0.379l-33.447,35.927c-4.834,-6.528 -7.597,-14.348 -7.893,-22.642c-0.387,-10.837 3.468,-21.176 10.857,-29.112l21.848,-23.469c7.389,-7.937 17.426,-12.521 28.262,-12.908c0.498,-0.018 0.992,-0.026 1.487,-0.026c7.761,0 15.219,2.182 21.666,6.278l-18.6,19.979c-2.823,3.031 -2.653,7.777 0.379,10.6c1.445,1.346 3.279,2.011 5.109,2.011c2.009,0 4.014,-0.803 5.491,-2.39l18.589,-19.968c11.364,15.402 10.55,37.239 -2.957,51.747z"/>
 </g>
</svg>